<svg id="b4187f4c-bfc6-49a8-8a49-45f824fdf25b" data-name="Слой 1" xmlns="http://www.w3.org/2000/svg" xmlns:xlink="http://www.w3.org/1999/xlink" viewBox="0 0 1347.3709 1451.12717"><defs><style>.bddb798a-e816-4a4f-8529-9b13404025c8{fill:#009fe3;stroke-miterlimit:10;stroke:url(#f962bbc7-0793-496a-a234-3149fb36d303);}.f5b663bf-6b35-46c9-8818-d5bd28e7ee5b{fill:#fff;}</style><linearGradient id="f962bbc7-0793-496a-a234-3149fb36d303" x1="76.31455" y1="750.00008" x2="1423.68545" y2="750.00008" gradientUnits="userSpaceOnUse"><stop offset="0" stop-color="#fff"/><stop offset="1"/></linearGradient></defs><path class="bddb798a-e816-4a4f-8529-9b13404025c8" d="M1252.62094,454.57378,588.50873,71.14813C361.08929-60.15265,76.81488,103.97313,76.8148,366.57453l-.00025,766.85087c-.00009,262.6014,284.27421,426.72737,511.69373,295.42674l664.11246-383.42522C1480.04027,914.1263,1480.04038,585.87455,1252.62094,454.57378Z" transform="translate(-76.31455 -24.43649)"/><path class="f5b663bf-6b35-46c9-8818-d5bd28e7ee5b" d="M180.17854,820.97175H327.86042q6.09741,25.43336,22.15576,36.55151,16.04555,11.12365,47.83448,11.12183,26.64733,0,41.89819-9.0564,15.24353-9.05823,15.249-24.95,0-25.42236-63.88916-41.31592-12.843-3.16954-19.585-4.76806-52.33337-13.3429-83.313-24.30908-30.98692-10.96986-45.1062-20.50232-27.29-19.3799-40.93506-46.39893-13.65051-27.00988-13.645-61.6571,0-69.59839,52.97608-109.32679,52.97058-39.72381,145.75561-39.72656,91.17555,0,143.51075,37.97791,52.32238,37.98247,59.07348,108.8507H445.68879q-3.5376-20.6543-18.46069-30.82763-14.93043-10.16785-42.53906-10.16968-24.40614,0-36.28052,7.94495-11.88171,7.94861-11.87988,24.15527,0,23.20038,62.28515,38.77258,5.45472,1.593,8.346,2.22473,8.98682,2.22749,27.29,6.6742,82.50732,20.66253,107.87475,37.50183,31.45935,20.66253,45.90821,47.03613,14.447,26.38366,14.447,62.29248,0,77.547-54.73755,119.17969-54.73938,41.63819-156.8335,41.63086-94.07043,0-149.12841-41.63086Q186.91682,896.61445,180.17854,820.97175Z" transform="translate(-76.31455 -24.43649)"/><path class="f5b663bf-6b35-46c9-8818-d5bd28e7ee5b" d="M673.03987,966.84821V498.71162H823.61115V653.80378L959.73542,498.71162h176.25733L967.1219,671.283l190.70434,295.56518h-181.073L861.17341,779.34089,823.61115,817.7967V966.84821Z" transform="translate(-76.31455 -24.43649)"/></svg>